<?xml version="1.0" encoding="UTF-8" standalone="no"?>
<!-- Created with Inkscape (http://www.inkscape.org/) -->

<svg
   width="210mm"
   height="297mm"
   viewBox="0 0 210 297"
   version="1.1"
   id="svg5"
   inkscape:version="1.1.1 (3bf5ae0d25, 2021-09-20)"
   sodipodi:docname="logo.svg"
   xmlns:inkscape="http://www.inkscape.org/namespaces/inkscape"
   xmlns:sodipodi="http://sodipodi.sourceforge.net/DTD/sodipodi-0.dtd"
   xmlns="http://www.w3.org/2000/svg"
   xmlns:svg="http://www.w3.org/2000/svg">
  <sodipodi:namedview
     id="namedview7"
     pagecolor="#ffffff"
     bordercolor="#666666"
     borderopacity="1.0"
     inkscape:pageshadow="2"
     inkscape:pageopacity="0.0"
     inkscape:pagecheckerboard="0"
     inkscape:document-units="mm"
     showgrid="false"
     inkscape:zoom="0.69664703"
     inkscape:cx="326.56423"
     inkscape:cy="325.12878"
     inkscape:window-width="1920"
     inkscape:window-height="986"
     inkscape:window-x="-11"
     inkscape:window-y="-11"
     inkscape:window-maximized="1"
     inkscape:current-layer="layer1" />
  <defs
     id="defs2" />
  <g
     inkscape:label="Taso 1"
     inkscape:groupmode="layer"
     id="layer1">
    <path
       style="fill:#917c6f;stroke-width:0.109697"
       id="path434"
       d="m 26.347635,1.0674583 c -2.055732,0.9319778 -4.057244,1.9716614 -5.977078,3.1141919 -0.525779,0.3129009 -1.043912,0.6420819 -1.511968,1.0217952 -1.22323,0.9923565 -1.313503,1.3152328 -2.151352,2.5413433 -0.195081,0.4733976 -0.440433,0.9324598 -0.585238,1.4201983 -0.747557,2.517924 -0.108237,5.171742 0.418257,7.664324 0.626188,2.666103 1.093912,5.359638 1.370448,8.072787 0.06499,1.138467 -0.01454,2.292795 -0.299678,3.406301 -0.141752,0.553481 -0.253813,0.785072 -0.464954,1.310918 -0.525328,1.262975 -1.420103,2.345233 -2.332737,3.399666 -0.698152,0.771398 -1.431938,1.527619 -2.299497,2.150854 -0.574514,0.412727 -0.746228,0.484757 -1.366888,0.828738 0.245164,-0.14272 0.7233,-0.165983 0.735497,-0.428155 0.01047,-0.224496 -0.476694,0.143326 -0.723863,0.178021 -0.25612,0.03598 -0.517694,0.03833 -0.776842,0.03262 C 9.5973604,35.763684 8.8816265,35.562972 8.1427947,35.35015 7.3102425,35.076197 6.489681,34.763571 5.7277639,34.353304 5.5746471,34.270856 4.8654759,33.852233 4.709551,33.760595 3.8172263,33.279166 3.1734623,32.666607 2.6562073,31.864034 c -0.026765,-0.101379 -0.087327,-0.200135 -0.080338,-0.304136 0.00627,-0.08957 0.078295,-0.16512 0.1174388,-0.24768 -0.356209,0.216017 -0.8019138,0.345343 -1.0686334,0.64805 -0.1166678,0.132415 0.3708388,-0.06283 0.5587059,-0.06932 0.6831398,-0.02359 0.8225922,0.05145 1.5142381,0.192608 0.2925942,0.108541 0.5934686,0.200567 0.8777702,0.325612 0.5045432,0.221912 1.2008147,0.629097 1.6726825,0.904405 0.7853725,0.458227 1.5569863,0.935514 2.3364917,1.401727 0.6970927,0.379971 1.4105199,0.753901 2.1843279,0.99628 0.234771,0.07354 0.479621,0.118124 0.717764,0.182319 0.840977,0.226698 0.968783,0.276435 1.818516,0.542356 0.335713,0.117754 0.671726,0.234808 1.007131,0.353256 0.827513,0.292233 1.163244,0.423953 1.995289,0.684926 0.832489,0.261119 1.679151,0.488114 2.516323,0.736937 1.49747,0.417967 2.996897,0.830924 4.479876,1.289398 1.233854,0.430044 2.545244,0.67342 3.872379,0.660004 0.07112,-5.6e-4 2.02923,-0.126665 2.132911,-0.133289 0.885617,-0.0766 1.776576,-0.109633 2.659818,-0.209381 0.249576,-0.02819 0.50124,-0.04982 0.746115,-0.101446 0.492446,-0.103861 1.18428,-0.353845 1.650212,-0.511136 1.6357,-0.609286 3.304096,-1.1422 4.94478,-1.739986 1.378615,-0.553156 2.801489,-1.175601 3.803355,-2.21617 0.444407,-0.461578 0.493311,-0.576144 0.845627,-1.086013 0.570239,-0.933227 0.882243,-1.969016 0.82719,-3.037651 -0.01072,-0.207739 -0.04965,-0.413523 -0.07442,-0.620281 -0.06387,-0.193724 -0.105717,-0.394447 -0.191615,-0.581177 -0.3812,-0.828693 -1.183565,-1.692973 -2.021358,-2.176823 -0.261567,-0.151064 -0.549949,-0.260917 -0.824924,-0.391375 -1.162472,-0.414268 -2.580978,-0.808474 -3.847839,-0.73469 -1.046432,0.06095 -1.272485,0.224882 -2.258185,0.574294 -0.859743,0.473571 -1.750908,0.903935 -2.579229,1.420703 -1.137031,0.709354 -2.348433,2.012403 -3.116624,3.042784 -0.750535,1.006703 -0.790237,1.213434 -1.332313,2.310465 -0.118047,0.386275 -0.277927,0.764156 -0.354141,1.158827 -0.229625,1.189118 0.0044,2.359108 0.526952,3.460011 0.418495,0.882017 0.668259,1.110576 1.273625,1.867952 0.833147,0.866123 1.789275,1.694307 3.084249,1.932158 0.683472,0.125532 1.019767,0.05789 1.702412,0.0084 0.752528,-0.159813 1.524004,-0.355179 2.202568,-0.700847 0.858402,-0.437279 1.790742,-0.775068 2.418453,-1.470938 0.146454,-0.162357 0.25953,-0.346868 0.389292,-0.520298 0.755549,-1.127293 1.026925,-2.42837 1.322591,-3.697896 0.261078,-1.124362 0.504437,-2.252176 0.739816,-3.381139 0.205179,-0.95904 0.249432,-1.935055 0.289441,-2.908313 0.01968,-0.332504 -0.0063,-0.665423 0.06284,-0.994688 0.01974,-0.09426 0.178615,-0.318326 0.0816,-0.278234 -1.765256,0.729445 -1.559462,0.686696 -0.854459,0.786495 0.161297,0.08364 0.330949,0.155464 0.483896,0.250936 0.508881,0.317631 0.892745,0.654461 1.351105,1.032499 0.746159,0.615412 1.47715,1.235766 2.249337,1.825074 1.026531,0.723185 2.102617,1.453885 3.358967,1.823018 0.170655,0.05016 0.347521,0.08128 0.521279,0.121917 0.922305,0.187296 1.501746,0.04371 2.31832,-0.324748 0.741728,-0.358003 0.860947,-0.412335 1.97634,-1.017127 0.08345,-0.04523 0.392038,-0.294418 0.443173,-0.34921 0.207442,-0.222287 0.472519,-0.615602 0.639,-0.850101 0.41103,-0.668152 1.068564,-1.322888 1.232801,-2.094751 0.02714,-0.127393 0.02106,-0.258697 0.03165,-0.388046 -0.06509,-0.381552 -0.157328,-0.821341 -0.519379,-1.080869 -0.623819,-0.447181 -1.426379,-0.390484 -2.167504,-0.391885 -0.442145,0.08859 -0.89114,0.153071 -1.326421,0.265776 -1.527997,0.395629 -2.986449,1.019223 -4.339766,1.763468 -0.891692,0.490372 -1.788592,0.976004 -2.642042,1.518489 -0.411754,0.261729 -0.763343,0.592485 -1.145007,0.888731 -0.959343,0.874294 -1.865282,1.810402 -2.493952,2.909994 -0.329451,0.576244 -0.684989,1.447182 -0.857129,2.080056 -0.09269,0.340782 -0.136243,0.690849 -0.204359,1.036277 -0.04933,1.068107 -0.0477,2.978958 1.114228,3.66079 0.202722,0.118953 0.451772,0.156731 0.677661,0.235099 1.972905,0.280346 3.544556,-0.434023 5.240869,-1.223925 0.758256,-0.419015 1.538702,-0.807252 2.274782,-1.257051 0.298624,-0.182476 0.55408,-0.416555 0.82127,-0.634841 1.089932,-0.890474 2.011548,-1.902994 2.909858,-2.947324 0.912859,-1.082919 1.707947,-2.254187 2.210159,-3.538906 0.0341,-0.110866 0.07314,-0.220607 0.102307,-0.332599 0.0593,-0.227763 0.09566,-0.463736 0.116048,-0.696851 0.0038,-0.03912 0.04413,-0.139751 0.0082,-0.117485 -0.547624,0.338814 -1.054806,0.727567 -1.582209,1.091348 -0.339398,2.639085 -0.75622,5.267416 -1.258406,7.885306 -0.648578,3.129754 -1.702425,6.167416 -2.898244,9.158218 -1.158536,2.657012 -2.27786,5.372011 -4.000555,7.787688 -0.278397,0.390383 -0.591902,0.759645 -0.887856,1.13947 -0.346211,0.379557 -0.674919,0.772563 -1.038644,1.138669 -1.142057,1.149519 -2.423542,2.219544 -3.841966,3.089786 -1.466124,0.899508 -1.519328,1.032612 -1.11634,0.490704 -1.363998,0.476451 -2.77663,0.997232 -4.272308,0.909482 -0.728941,-0.04276 -0.904441,-0.139044 -1.571278,-0.344429 -0.202208,-0.10106 -0.419197,-0.181288 -0.606625,-0.303178 -0.848417,-0.551743 -1.344103,-1.434595 -1.535456,-2.342526 -0.06576,-0.312027 -0.07547,-0.631501 -0.113207,-0.947255 0.04306,-0.37083 0.04519,-0.747361 0.129191,-1.112492 0.417235,-1.813306 1.465742,-3.489125 2.755488,-4.913599 0.291366,-0.321806 0.618303,-0.616253 0.927451,-0.924379 0.888971,-0.864033 1.969815,-1.502192 3.059848,-2.134388 0.09167,-0.05318 -0.374907,0.199882 -0.276655,0.157218 4.883666,-2.120692 -2.773089,1.102287 2.68605,-1.18023 1.92523,-0.835362 3.974518,-1.445793 5.819307,-2.428729 2.528138,-1.347031 2.230022,-1.198662 4.094558,-2.439853 1.832268,-1.17611 3.587119,-2.446891 5.404381,-3.640823 0.883273,-0.580302 1.901574,-1.196033 2.805432,-1.750898 2.583276,-1.5076 5.07724,-3.12957 7.516115,-4.818564 0.645506,-0.441936 1.269394,-0.906905 1.827003,-1.4376 0.129517,-0.123257 0.524908,-0.516454 0.636223,-0.685743 0.05735,-0.08721 0.08278,-0.188411 0.124158,-0.282616 -0.008,-0.229859 0.05503,-0.349339 -0.292519,-0.442917 -0.6434,-0.17324 -1.716941,0.32212 -2.216188,0.594228 -0.856195,0.466656 -1.680568,0.978856 -2.520855,1.468287 -2.263355,1.564449 -4.190538,3.520789 -5.149342,5.975952 -0.192875,0.493897 -0.29507,1.0127 -0.442602,1.519049 -0.04801,0.492424 -0.154765,0.98306 -0.144028,1.477277 0.03216,1.480846 0.587514,2.887578 1.652487,4.022666 0.796482,0.848913 1.207086,0.980084 2.228828,1.550181 0.419892,0.153486 0.827644,0.337111 1.259678,0.460464 1.354289,0.386673 2.776831,0.417149 4.183345,0.378615 0.470502,-0.01289 0.941686,-0.02953 1.409693,-0.07484 0.433751,-0.04197 0.861448,-0.124434 1.292178,-0.186651 1.902251,-0.4474 3.939185,-1.158946 5.180141,-2.604424 0.645224,-0.75157 0.650702,-1.019223 1.016821,-1.943904 0.717426,-2.45374 0.91872,-5.012255 0.920387,-7.541919 -0.09204,-1.202697 -0.27636,-2.422037 -0.788513,-3.545985 -0.25335,-0.55598 -0.376373,-0.690731 -0.717301,-1.183586 -0.454248,-0.57597 -1.011688,-1.104266 -1.793995,-1.295344 -0.127656,-0.03121 -0.26027,-0.0427 -0.390408,-0.06409 -0.14545,0.0022 -0.291428,-0.0045 -0.436359,0.0068 -0.276435,0.02152 -0.649699,0.09764 -0.920455,0.147893 -0.537834,0.09981 -1.075817,0.196968 -1.612534,0.301659 -0.209937,0.04551 -0.419881,0.09099 -0.629824,0.136483 0,0 -1.340543,0.919604 -1.340543,0.919604 v 0 c 0.208671,-0.04629 0.417342,-0.09256 0.626019,-0.138831 0.532104,-0.103351 1.066778,-0.191908 1.599246,-0.293337 0.235285,-0.04483 0.660806,-0.136007 0.900811,-0.165602 0.136883,-0.01687 0.275445,-0.01995 0.413161,-0.02993 0.124365,0.01395 0.250661,0.01782 0.373089,0.04192 0.76297,0.150062 1.308977,0.64967 1.758374,1.193343 0.342845,0.480195 0.459695,0.600802 0.713809,1.146498 0.514234,1.1043 0.700954,2.304614 0.787792,3.490145 0.02056,2.514483 -0.166643,5.059464 -0.93276,7.488646 -0.391361,0.897922 -0.413424,1.176083 -1.069066,1.897945 -0.217277,0.239218 -0.609195,0.365148 -0.729937,0.654192 -0.06709,0.160603 0.708043,-0.257061 0.534291,-0.185844 -1.059726,0.43432 -1.01432,0.382028 -2.166006,0.691779 -0.430047,0.06806 -0.85654,0.157796 -1.290147,0.204153 -0.46728,0.04993 -0.938351,0.06876 -1.408602,0.08437 -1.384921,0.04595 -2.799452,0.02572 -4.138334,-0.338715 -0.427133,-0.116269 -0.83108,-0.292563 -1.24661,-0.438842 -1.004247,-0.542738 -1.420041,-0.67179 -2.206165,-1.491001 -1.061861,-1.106558 -1.586669,-2.476784 -1.609366,-3.931509 -0.0076,-0.485856 0.0981,-0.9678 0.147143,-1.451705 0.149012,-0.49856 0.252335,-1.009987 0.44704,-1.495669 0.980671,-2.446225 2.948361,-4.37423 5.218962,-5.921704 -0.08923,-0.0028 -0.338765,0.04063 -0.267685,-0.0078 0.378191,-0.258098 1.1219,-0.519827 1.603696,-0.630302 0.02676,-0.0061 0.537865,-0.132515 0.644942,0.01715 0.03598,0.05033 -0.0093,0.119323 -0.01398,0.17899 -0.500318,0.929557 -1.696363,1.65991 -2.547124,2.308246 -2.417569,1.687543 -4.902198,3.292627 -7.469298,4.792836 -0.974813,0.60079 -1.846246,1.127909 -2.800525,1.756446 -1.81609,1.196173 -3.576845,2.460386 -5.407013,3.63982 -0.455872,0.300448 -0.930592,0.579113 -1.367628,0.901356 -0.03372,0.02488 0.02351,0.09612 -0.01341,0.116947 -1.815357,1.023174 -3.899963,1.583268 -5.810908,2.433802 -2.937845,1.206546 -5.913982,2.522592 -8.206647,4.611968 -0.303695,0.311091 -0.62496,0.609034 -0.911098,0.933278 -1.281159,1.451755 -2.322069,3.162567 -2.740263,4.991597 -0.08609,0.376503 -0.08671,0.764768 -0.130056,1.147149 0.03761,0.325656 0.04601,0.655111 0.112875,0.976956 0.196918,0.948146 0.708714,1.866478 1.584817,2.451907 0.193571,0.129344 0.419429,0.21428 0.629153,0.321425 0.683484,0.219962 0.8689,0.32277 1.617373,0.378632 1.52075,0.113495 2.955483,-0.402354 4.345864,-0.881557 1.343439,-0.628352 2.630289,-1.151173 3.857693,-1.92257 1.868429,-1.17425 3.477995,-2.66112 4.871766,-4.274061 0.832227,-1.096084 1.006022,-1.263238 1.720139,-2.470362 1.231559,-2.081816 2.165799,-4.292684 3.128013,-6.48099 1.20272,-2.994629 2.243843,-6.042389 2.88335,-9.179132 0.509113,-2.64279 0.918469,-5.299074 1.375037,-7.949446 -0.499228,0.09753 -1.008059,0.161567 -1.497703,0.292592 -0.03905,0.01048 -0.0019,0.0731 -0.005,0.109555 -0.02714,0.334494 -0.09939,0.665216 -0.213052,0.984741 -0.49452,1.261708 -1.275875,2.409568 -2.175163,3.471841 -0.681178,0.785509 -1.370687,1.557108 -2.15411,2.26408 -0.249657,0.225291 -0.506254,0.444659 -0.77103,0.655565 -0.269823,0.214918 -0.642272,0.345752 -0.831938,0.621251 -0.105492,0.15324 0.368118,-0.143252 0.55218,-0.214879 -1.681834,0.798011 -3.16789,1.51873 -5.139382,1.309539 -0.211241,-0.05982 -0.443216,-0.07798 -0.633735,-0.179438 -0.850986,-0.453234 -1.076525,-1.746308 -1.109846,-2.532304 -0.01385,-0.327124 0.01962,-0.654484 0.0294,-0.981726 0.196523,-0.953201 0.181994,-1.119324 0.571605,-2.038395 0.637847,-1.504619 1.71466,-2.773814 2.99806,-3.884833 0.38194,-0.291336 0.793822,-0.553699 1.145812,-0.874025 0.03109,-0.0283 -0.119444,-0.0707 -0.08293,-0.09321 0.442045,-0.272557 0.920118,-0.495982 1.396618,-0.716785 1.316536,-0.610071 2.707192,-1.091376 4.166904,-1.335307 0.934691,-0.01278 2.138514,-0.11262 2.438655,0.908318 0.03554,0.121043 0.03961,0.247848 0.05936,0.371772 -0.01598,0.119071 -0.01793,0.24035 -0.04789,0.35723 -0.195859,0.763825 -0.819935,1.382958 -1.233234,2.050786 -0.256339,0.340551 -0.375471,0.532364 -0.683603,0.824019 -0.07297,0.06907 -0.158376,0.126816 -0.241905,0.185447 -0.06978,0.04898 -0.295258,0.175112 -0.217521,0.137009 0.328028,-0.160771 1.865577,-0.953245 0.969974,-0.504831 -0.788225,0.389857 -1.337911,0.584074 -2.259946,0.423622 -0.171946,-0.03435 -0.346851,-0.05835 -0.515826,-0.103015 -1.258531,-0.332678 -2.337921,-1.050466 -3.360828,-1.760027 -0.770624,-0.587055 -1.504704,-1.200842 -2.241521,-1.821824 -0.478042,-0.402881 -0.82152,-0.720131 -1.335829,-1.074681 -0.158182,-0.10904 -0.330924,-0.199872 -0.496389,-0.299804 -0.951802,-0.296095 -0.542885,-0.266185 -2.105036,0.75468 -0.08989,0.05874 -0.0519,0.19439 -0.0688,0.293062 -0.05704,0.333087 -0.03773,0.666392 -0.04795,1.001839 -0.02977,0.965272 -0.08886,1.931496 -0.289472,2.882366 -0.234345,1.127259 -0.47237,2.254064 -0.735905,3.376134 -0.287624,1.257023 -0.56666,2.541669 -1.34871,3.640644 -0.135773,0.165439 -0.255638,0.342423 -0.407319,0.496307 -0.33696,0.34188 -1.256168,0.877579 0.457495,-0.04797 0.202327,-0.109269 -0.420582,0.193314 -0.636806,0.278441 -0.717753,0.282583 -0.777512,0.273072 -1.540746,0.471122 -0.653592,0.06466 -1.007175,0.14095 -1.666251,0.04029 -1.278289,-0.195186 -2.224625,-0.999536 -3.051411,-1.83723 -0.601341,-0.735575 -0.853224,-0.95853 -1.262537,-1.822501 -0.509971,-1.076447 -0.717733,-2.223691 -0.483639,-3.38258 0.07811,-0.386685 0.236733,-0.75668 0.355106,-1.135026 0.196348,-0.388109 0.36726,-0.787436 0.589062,-1.164325 0.445623,-0.757197 1.038346,-1.525775 1.650732,-2.180404 1.991352,-2.128762 0.09953,0.01468 2.245278,-1.933453 0.04732,-0.04298 -0.13435,0.0077 -0.201525,0.01155 0.944224,-0.358844 1.186868,-0.534175 2.198343,-0.61224 1.261596,-0.09737 2.636526,0.288366 3.799281,0.684365 0.267177,0.124333 0.547041,0.228783 0.801532,0.372994 0.820837,0.465131 1.590495,1.292889 1.954075,2.103263 0.08031,0.179018 0.119608,0.370769 0.179412,0.556154 0.02294,0.200566 0.06105,0.400196 0.06894,0.601698 0.04093,1.047227 -0.297433,2.05861 -0.867822,2.963968 -0.404856,0.562789 -0.8187,1.087705 -1.392988,1.52615 -0.178177,0.136029 -0.797903,0.403901 -0.566911,0.371161 0.309286,-0.04382 0.590579,-0.218533 0.822573,-0.407403 0.178754,-0.145522 -0.43802,0.181759 -0.657027,0.27263 -1.641599,0.606137 -3.313391,1.140737 -4.953323,1.750814 -0.307036,0.105581 -1.279536,0.450286 -1.618019,0.527903 -0.24354,0.05587 -0.495103,0.079 -0.744141,0.109594 -0.887955,0.10909 -1.784762,0.147282 -2.676021,0.226452 -0.347471,0.02281 -0.695068,0.04416 -1.04242,0.06846 -0.36113,0.02528 -0.72088,0.07225 -1.083,0.08032 -1.311948,0.02925 -2.604778,-0.206176 -3.821564,-0.638843 C 23.204654,38.200006 21.708499,37.773173 20.205237,37.369054 19.364229,37.121912 18.51207,36.902028 17.67424,36.646721 16.873799,36.402807 16.46905,36.250475 15.678319,35.96708 15.343421,35.847045 15.009038,35.725867 14.674397,35.605261 14.233425,35.463157 13.332726,35.166659 12.869934,35.040863 12.636348,34.977369 12.393322,34.943335 12.161509,34.874796 11.389369,34.646495 10.67801,34.280803 9.9820517,33.911312 9.1990612,33.447251 8.4282622,32.96728 7.6408339,32.509277 7.2002439,32.253011 6.417598,31.79767 5.9539352,31.584091 5.6672831,31.452047 5.3647602,31.349883 5.070179,31.232779 4.2783882,31.043976 4.3171563,31.006048 3.545586,30.986338 c -1.0716421,-0.0274 -1.2028519,0.167121 -2.4044878,0.986119 -0.096823,0.06599 -0.077455,0.212077 -0.071607,0.321111 0.00627,0.117423 0.071343,0.226216 0.1070213,0.339325 0.5415062,0.81447 1.1921147,1.457796 2.1095242,1.94832 1.1079095,0.64661 2.1999981,1.24902 3.4706958,1.615121 0.9910784,0.292905 2.0097865,0.575045 3.0708418,0.466493 1.1359967,-0.116224 1.7973677,-0.672798 2.8767447,-1.207135 0.620327,-0.356736 0.780552,-0.425807 1.354715,-0.850303 0.86116,-0.636685 1.589969,-1.400825 2.28829,-2.17754 0.916288,-1.067531 1.810229,-2.163754 2.318477,-3.446814 0.214463,-0.56377 0.299013,-0.733211 0.440082,-1.326716 0.267767,-1.126491 0.345472,-2.287785 0.263016,-3.435824 -0.322318,-2.705404 -0.839811,-5.387832 -1.440388,-8.054069 -0.515218,-2.446606 -1.129772,-5.136453 -0.36761,-7.6002464 0.148208,-0.479097 0.395936,-0.9287442 0.593907,-1.3931135 0.302962,-0.4325603 0.559051,-0.8946544 0.908891,-1.2976751 1.052988,-1.2130473 1.410815,-1.2615566 2.756566,-2.1990153 0.120041,-0.083625 0.208558,-0.2029535 0.337537,-0.2750562 1.003809,-0.5612087 1.852432,-0.9245636 2.887644,-1.3940887 0,0 1.302396,-0.9377557 1.302396,-0.9377557 z" />
  </g>
</svg>
